<svg width="20px" height="20px" viewBox="0 0 21 20" fill="none" xmlns="http://www.w3.org/2000/svg">
<g clip-path="url(#clip0_9_294)">
<path d="M6.69897 9.375C6.69897 8.93988 6.52612 8.52258 6.21845 8.2149C5.91077 7.90723 5.49347 7.73438 5.05835 7.73438C4.62323 7.73438 4.20593 7.90723 3.89825 8.2149C3.59058 8.52258 3.41772 8.93988 3.41772 9.375V13.125C3.41772 13.5601 3.59058 13.9774 3.89825 14.2851C4.20593 14.5928 4.62323 14.7656 5.05835 14.7656C5.49347 14.7656 5.91077 14.5928 6.21845 14.2851C6.52612 13.9774 6.69897 13.5601 6.69897 13.125V9.375Z" fill="#FFFCF2"/>
<path d="M11.9989 7.73438C11.5652 7.73603 11.1498 7.90971 10.844 8.2173C10.5381 8.52489 10.3668 8.94125 10.3677 9.375V9.65781H10.4661C10.7119 9.65781 10.9578 9.65781 11.2036 9.65781H11.2271C11.535 9.65597 11.8349 9.75595 12.0802 9.94219L12.2192 10.0469L12.4677 10.2266H13.2849H13.6364V9.375C13.6368 9.1597 13.5948 8.94643 13.5127 8.7474C13.4306 8.54836 13.31 8.36748 13.1579 8.21509C13.0058 8.0627 12.8252 7.94181 12.6263 7.85932C12.4274 7.77683 12.2142 7.73437 11.9989 7.73438Z" fill="#FFFCF2"/>
<path d="M3.81934 5.39541H3.89277C4.08429 5.40217 4.27523 5.37069 4.45444 5.30282C4.63365 5.23494 4.79754 5.13203 4.93652 5.0001C5.7584 3.90635 7.05684 3.06416 8.53027 3.0501C10.0021 3.06416 11.3006 3.90479 12.124 5.0001C12.2635 5.13166 12.4277 5.23411 12.6072 5.30145C12.7867 5.36879 12.9778 5.39967 13.1693 5.39228H13.4162C13.7537 6.10166 14.1037 6.89228 14.1037 7.73603V10.222L14.2693 10.0985L14.5115 9.91728C14.7484 9.74086 15.0364 9.6465 15.3318 9.64853H15.5146V7.73447C15.5131 7.39449 15.4869 7.05507 15.4365 6.71885L15.5115 6.73291C15.2708 5.06344 14.4367 3.53655 13.1621 2.43182C11.8875 1.32708 10.2576 0.718419 8.5709 0.717285H8.49746C6.81089 0.717505 5.18081 1.32517 3.90565 2.42902C2.63049 3.53288 1.79556 5.05908 1.55371 6.72822L1.62871 6.71885C1.57911 7.05669 1.55404 7.39769 1.55371 7.73916V11.0204C1.55371 12.5829 2.95996 12.4267 2.95996 12.4267V7.73447C2.95996 6.89541 3.30996 6.10478 3.64746 5.39072L3.81934 5.39541Z" fill="#FFFCF2"/>
<path d="M14.7755 15.4688C14.7676 15.4696 14.7601 15.4729 14.7542 15.4782C14.7483 15.4836 14.7443 15.4906 14.7427 15.4984C14.7427 15.5024 14.7435 15.5063 14.7451 15.51C14.7467 15.5136 14.749 15.5169 14.752 15.5195C14.7549 15.5222 14.7584 15.5242 14.7622 15.5254C14.766 15.5266 14.77 15.527 14.7739 15.5266C14.7911 15.5266 14.8005 15.5266 14.8005 15.4984C14.7996 15.4916 14.7968 15.4852 14.7923 15.4799C14.7879 15.4747 14.7821 15.4708 14.7755 15.4688Z" fill="#FFFCF2"/>
<path d="M11.8021 15.4688C11.7967 15.4697 11.7917 15.4725 11.788 15.4766C11.7815 15.4827 11.7776 15.4911 11.7771 15.5C11.7771 15.5172 11.7771 15.5281 11.8052 15.5281C11.8126 15.5275 11.8196 15.5244 11.825 15.5193C11.8304 15.5141 11.8339 15.5074 11.8349 15.5C11.8336 15.4919 11.8297 15.4845 11.8238 15.4789C11.8178 15.4732 11.8102 15.4697 11.8021 15.4688Z" fill="#FFFCF2"/>
<path d="M19.9818 15.3813C19.7206 14.0412 19.2188 12.7596 18.5006 11.5985C18.2809 11.2381 18.0038 10.9162 17.6803 10.6453C17.4198 10.4222 17.0856 10.3041 16.7428 10.3141C16.274 10.3281 15.8162 10.3141 15.3537 10.3141C15.1958 10.3095 15.0411 10.3585 14.9146 10.4531L14.4803 10.7813C14.3713 10.8611 14.2387 10.9018 14.1037 10.8969C13.5568 10.8969 13.0094 10.8969 12.4615 10.8969C12.3342 10.8987 12.21 10.858 12.1084 10.7813L11.6865 10.4688C11.5529 10.3643 11.3873 10.3091 11.2178 10.3125C10.749 10.3125 10.2693 10.3219 9.79434 10.3125C9.50879 10.3068 9.22949 10.3964 9.00059 10.5672C8.62779 10.8508 8.31319 11.2036 8.07402 11.6063C7.3962 12.6982 6.9125 13.8993 6.64434 15.1563C6.54016 15.5997 6.47017 16.0505 6.43496 16.5047C6.43496 16.5344 6.42559 16.5641 6.4209 16.5953V17.4453C6.44578 17.6496 6.48125 17.8525 6.52715 18.0531C6.5697 18.2151 6.62887 18.3721 6.70371 18.5219C6.78798 18.6961 6.91262 18.8476 7.06725 18.9639C7.22189 19.0803 7.40205 19.158 7.59277 19.1906H7.9834C8.39861 19.0871 8.77713 18.8708 9.07715 18.5656C9.46521 18.1853 9.82111 17.7735 10.1412 17.3344C10.2787 17.1547 10.4162 16.9766 10.5568 16.8C10.576 16.7655 10.6029 16.7359 10.6354 16.7136C10.668 16.6912 10.7053 16.6768 10.7444 16.6713C10.7835 16.6658 10.8233 16.6696 10.8607 16.6821C10.8981 16.6947 10.9321 16.7158 10.96 16.7438C11.1551 16.884 11.3816 16.9742 11.6196 17.0067C11.8577 17.0391 12.1001 17.0126 12.3256 16.9297C12.459 16.8796 12.5835 16.8083 12.6943 16.7188C12.7432 16.6816 12.8033 16.6623 12.8646 16.6641C13.1438 16.6641 13.423 16.6641 13.7021 16.6641C13.7639 16.6627 13.8244 16.6819 13.874 16.7188C14.1271 16.9051 14.4332 17.0056 14.7475 17.0056C15.0617 17.0056 15.3678 16.9051 15.6209 16.7188C15.6496 16.6936 15.6835 16.6749 15.7201 16.664C15.7567 16.6531 15.7952 16.6503 15.833 16.6556C15.8708 16.6609 15.907 16.6744 15.9392 16.695C15.9714 16.7156 15.9987 16.7429 16.0193 16.775C16.3818 17.2203 16.7084 17.6938 17.0912 18.1219C17.3159 18.3833 17.5673 18.6205 17.8412 18.8297C18.0651 18.9979 18.3216 19.1177 18.5943 19.1813H18.985C19.5443 19.0735 19.8443 18.7 20.0084 18.186C20.0804 17.9331 20.1296 17.6742 20.1553 17.4125V16.586C20.1183 16.1817 20.0604 15.7796 19.9818 15.3813ZM10.7787 12.9938C10.7787 13.0672 10.7459 13.0985 10.674 13.0953C10.6021 13.0922 10.4896 13.0953 10.399 13.0953C10.3193 13.0953 10.2428 13.0953 10.1584 13.0953C10.074 13.0953 10.0131 13.125 10.0178 13.2313C10.0178 13.4 10.0178 13.5688 10.0178 13.736C10.0178 13.825 9.9834 13.861 9.8959 13.8578C9.81575 13.8534 9.73542 13.8534 9.65527 13.8578C9.55371 13.8578 9.5209 13.8172 9.52246 13.7203C9.52246 13.5516 9.52246 13.3828 9.52246 13.2156C9.52246 13.1281 9.48809 13.0922 9.39902 13.0953C9.22715 13.0953 9.05527 13.0953 8.88184 13.0953C8.79277 13.0953 8.7584 13.0578 8.7584 12.9719C8.7584 12.5328 8.70996 12.6094 9.10527 12.6016C9.20527 12.6016 9.30371 12.6016 9.40371 12.6016C9.50371 12.6016 9.52246 12.5672 9.5209 12.4844C9.5209 12.3156 9.5209 12.1469 9.5209 11.9797C9.5209 11.8766 9.55684 11.8235 9.66152 11.8375C9.72559 11.8375 9.79121 11.8375 9.85684 11.8375C10.0131 11.8375 10.0131 11.8469 10.0131 11.9938C10.0131 12.1406 10.0131 12.3063 10.0131 12.4625C10.0131 12.5703 10.0537 12.6047 10.1537 12.6016C10.3178 12.6016 10.4834 12.6016 10.6475 12.6016C10.7412 12.6016 10.7803 12.6344 10.7756 12.7297C10.7709 12.825 10.7771 12.9063 10.7787 12.9938ZM11.8068 16.1985C11.7157 16.1995 11.6253 16.1824 11.5408 16.1481C11.4564 16.1138 11.3797 16.063 11.3151 15.9987C11.2505 15.9344 11.1994 15.8579 11.1647 15.7736C11.13 15.6893 11.1125 15.599 11.1131 15.5078C11.1125 15.3705 11.1526 15.236 11.2285 15.1216C11.3043 15.0071 11.4125 14.9176 11.5392 14.8647C11.6659 14.8117 11.8055 14.7975 11.9403 14.8239C12.075 14.8503 12.1989 14.9161 12.2963 15.013C12.3936 15.1099 12.46 15.2335 12.487 15.3682C12.514 15.5029 12.5005 15.6425 12.4481 15.7695C12.3957 15.8964 12.3067 16.0049 12.1926 16.0813C12.0784 16.1577 11.9442 16.1984 11.8068 16.1985ZM14.7756 16.1985C14.6846 16.1991 14.5943 16.1817 14.51 16.1474C14.4257 16.1131 14.3489 16.0625 14.2842 15.9985C14.2195 15.9345 14.168 15.8583 14.1327 15.7744C14.0975 15.6905 14.0791 15.6004 14.0787 15.5094C14.0743 15.4156 14.0889 15.3219 14.1217 15.234C14.1545 15.146 14.2048 15.0656 14.2696 14.9977C14.3344 14.9298 14.4123 14.8757 14.4986 14.8387C14.5849 14.8018 14.6778 14.7827 14.7717 14.7827C14.8656 14.7827 14.9585 14.8018 15.0448 14.8387C15.1311 14.8757 15.209 14.9298 15.2737 14.9977C15.3385 15.0656 15.3888 15.146 15.4217 15.234C15.4545 15.3219 15.4691 15.4156 15.4646 15.5094C15.4651 15.6001 15.4475 15.69 15.4129 15.7739C15.3783 15.8578 15.3274 15.934 15.2632 15.9981C15.199 16.0622 15.1227 16.1129 15.0387 16.1473C14.9547 16.1817 14.8648 16.1991 14.774 16.1985H14.7756ZM15.7646 13.2297C15.7198 13.2291 15.6755 13.2196 15.6343 13.2018C15.5931 13.1841 15.5558 13.1583 15.5246 13.1261C15.4934 13.0938 15.4688 13.0558 15.4524 13.014C15.4359 12.9723 15.4279 12.9277 15.4287 12.8828C15.4279 12.8378 15.4361 12.793 15.4529 12.7512C15.4697 12.7095 15.4947 12.6715 15.5265 12.6395C15.5583 12.6076 15.5962 12.5824 15.6379 12.5654C15.6796 12.5484 15.7243 12.54 15.7693 12.5406C15.8605 12.5406 15.9479 12.5769 16.0124 12.6413C16.0769 12.7058 16.1131 12.7932 16.1131 12.8844C16.1131 12.9756 16.0769 13.063 16.0124 13.1275C15.9479 13.1919 15.8605 13.2281 15.7693 13.2281L15.7646 13.2297ZM16.624 11.6875C16.7139 11.6875 16.8002 11.7232 16.8638 11.7868C16.9274 11.8504 16.9631 11.9367 16.9631 12.0266C16.9631 12.1165 16.9274 12.2027 16.8638 12.2663C16.8002 12.3299 16.7139 12.3656 16.624 12.3656C16.5341 12.3656 16.4479 12.3299 16.3843 12.2663C16.3207 12.2027 16.285 12.1165 16.285 12.0266C16.285 11.9367 16.3207 11.8504 16.3843 11.7868C16.4479 11.7232 16.5341 11.6875 16.624 11.6875ZM16.6396 14.1047C16.5523 14.0988 16.4704 14.06 16.4106 13.996C16.3508 13.932 16.3176 13.8477 16.3176 13.7602C16.3176 13.6726 16.3508 13.5883 16.4106 13.5243C16.4704 13.4604 16.5523 13.4215 16.6396 13.4156C16.727 13.4215 16.8089 13.4604 16.8687 13.5243C16.9285 13.5883 16.9617 13.6726 16.9617 13.7602C16.9617 13.8477 16.9285 13.932 16.8687 13.996C16.8089 14.06 16.727 14.0988 16.6396 14.1047ZM17.4975 13.2297C17.4063 13.2297 17.3189 13.1935 17.2544 13.129C17.1899 13.0646 17.1537 12.9771 17.1537 12.886C17.1537 12.7948 17.1899 12.7073 17.2544 12.6429C17.3189 12.5784 17.4063 12.5422 17.4975 12.5422C17.5886 12.5422 17.6761 12.5784 17.7405 12.6429C17.805 12.7073 17.8412 12.7948 17.8412 12.886C17.8412 12.9771 17.805 13.0646 17.7405 13.129C17.6761 13.1935 17.5886 13.2297 17.4975 13.2297Z" fill="#FFFCF2"/>
</g>
<defs>
<clipPath id="clip0_9_294">
<rect width="20px" height="20px" fill="white" transform="translate(0.749023)"/>
</clipPath>
</defs>
</svg>
