<svg width="19" height="14" viewBox="0 0 19 14" fill="none" xmlns="http://www.w3.org/2000/svg">
<path d="M18.2459 6.58422C17.4174 2.83852 16.1705 0.839303 14.3209 0.293209C13.9321 0.179165 13.5288 0.122191 13.1237 0.124068C12.5881 0.124068 12.1217 0.254537 11.6283 0.392818C11.0338 0.559615 10.3584 0.749068 9.37366 0.749068C8.38889 0.749068 7.71311 0.560006 7.11741 0.393209C6.62366 0.254537 6.15764 0.124068 5.62366 0.124068C5.20468 0.122616 4.78754 0.179409 4.3842 0.292818C2.54436 0.836568 1.29827 2.83501 0.45764 6.58188C-0.446266 10.6139 -0.00134394 13.1596 1.7053 13.7502C1.93923 13.8327 2.18538 13.8752 2.43342 13.876C3.60256 13.876 4.54006 12.9022 5.18069 12.1049C5.90452 11.2026 6.75178 10.7448 9.37366 10.7448C11.7155 10.7448 12.6846 11.0623 13.5217 12.1049C14.0479 12.7604 14.5451 13.219 15.0412 13.5077C15.701 13.8913 16.3604 13.9764 17.0006 13.7565C18.0092 13.4123 18.5873 12.5026 18.7194 11.0518C18.8197 9.9393 18.6651 8.47797 18.2459 6.58422ZM7.49866 6.37407H6.24866V7.62407C6.24866 7.78983 6.18281 7.9488 6.0656 8.06601C5.94839 8.18322 5.78942 8.24907 5.62366 8.24907C5.4579 8.24907 5.29892 8.18322 5.18171 8.06601C5.0645 7.9488 4.99866 7.78983 4.99866 7.62407V6.37407H3.74866C3.5829 6.37407 3.42392 6.30822 3.30671 6.19101C3.1895 6.0738 3.12366 5.91483 3.12366 5.74907C3.12366 5.58331 3.1895 5.42434 3.30671 5.30713C3.42392 5.18992 3.5829 5.12407 3.74866 5.12407H4.99866V3.87407C4.99866 3.70831 5.0645 3.54934 5.18171 3.43213C5.29892 3.31492 5.4579 3.24907 5.62366 3.24907C5.78942 3.24907 5.94839 3.31492 6.0656 3.43213C6.18281 3.54934 6.24866 3.70831 6.24866 3.87407V5.12407H7.49866C7.66442 5.12407 7.82339 5.18992 7.9406 5.30713C8.05781 5.42434 8.12366 5.58331 8.12366 5.74907C8.12366 5.91483 8.05781 6.0738 7.9406 6.19101C7.82339 6.30822 7.66442 6.37407 7.49866 6.37407ZM10.7799 6.53032C10.6254 6.53032 10.4743 6.4845 10.3459 6.39865C10.2174 6.31281 10.1173 6.19079 10.0581 6.04804C9.99899 5.90528 9.98352 5.7482 10.0137 5.59665C10.0438 5.44511 10.1182 5.3059 10.2275 5.19664C10.3367 5.08738 10.4759 5.01297 10.6275 4.98283C10.779 4.95269 10.9361 4.96816 11.0789 5.02729C11.2216 5.08642 11.3436 5.18655 11.4295 5.31503C11.5153 5.4435 11.5612 5.59455 11.5612 5.74907C11.5612 5.95627 11.4788 6.15498 11.3323 6.3015C11.1858 6.44801 10.9871 6.53032 10.7799 6.53032ZM12.4987 8.24907C12.3441 8.24907 12.1929 8.2032 12.0644 8.11727C11.9359 8.03134 11.8358 7.90921 11.7767 7.76634C11.7176 7.62347 11.7023 7.46629 11.7326 7.31468C11.7629 7.16308 11.8375 7.02388 11.9469 6.9147C12.0564 6.80552 12.1958 6.73127 12.3474 6.70134C12.4991 6.67142 12.6563 6.68717 12.799 6.7466C12.9417 6.80603 13.0636 6.90647 13.1492 7.0352C13.2348 7.16393 13.2803 7.31517 13.2799 7.46977C13.2794 7.67663 13.1969 7.87485 13.0504 8.02094C12.9039 8.16703 12.7055 8.24907 12.4987 8.24907ZM12.4987 4.81157C12.3441 4.81157 12.1931 4.76575 12.0646 4.6799C11.9361 4.59406 11.836 4.47204 11.7769 4.32929C11.7177 4.18654 11.7023 4.02945 11.7324 3.8779C11.7626 3.72636 11.837 3.58715 11.9462 3.47789C12.0555 3.36863 12.1947 3.29422 12.3462 3.26408C12.4978 3.23394 12.6549 3.24941 12.7976 3.30854C12.9404 3.36767 13.0624 3.4678 13.1482 3.59628C13.2341 3.72476 13.2799 3.8758 13.2799 4.03032C13.2799 4.23752 13.1976 4.43623 13.0511 4.58275C12.9046 4.72926 12.7059 4.81157 12.4987 4.81157ZM14.2174 6.53032C14.0629 6.53032 13.9118 6.4845 13.7834 6.39865C13.6549 6.31281 13.5548 6.19079 13.4956 6.04804C13.4365 5.90528 13.421 5.7482 13.4512 5.59665C13.4813 5.44511 13.5557 5.3059 13.665 5.19664C13.7742 5.08738 13.9134 5.01297 14.065 4.98283C14.2165 4.95269 14.3736 4.96816 14.5164 5.02729C14.6591 5.08642 14.7811 5.18655 14.867 5.31503C14.9528 5.4435 14.9987 5.59455 14.9987 5.74907C14.9987 5.95627 14.9163 6.15498 14.7698 6.3015C14.6233 6.44801 14.4246 6.53032 14.2174 6.53032Z" fill="#FFFCF2"/>
</svg>
