<svg width="40" height="40" viewBox="0 0 40 40" fill="none" xmlns="http://www.w3.org/2000/svg">
<g id="MaterialSymbolsAlternateEmail 1">
<path id="Vector" d="M20 36.6667C17.6945 36.6667 15.5278 36.2289 13.5 35.3534C11.4722 34.4778 9.70834 33.2906 8.20834 31.7917C6.70834 30.2917 5.52112 28.5278 4.64668 26.5C3.77223 24.4723 3.33445 22.3056 3.33334 20C3.33334 17.6945 3.77112 15.5278 4.64668 13.5C5.52223 11.4723 6.70945 9.70837 8.20834 8.20837C9.70834 6.70837 11.4722 5.52115 13.5 4.64671C15.5278 3.77226 17.6945 3.33449 20 3.33337C22.3056 3.33337 24.4722 3.77115 26.5 4.64671C28.5278 5.52226 30.2917 6.70949 31.7917 8.20837C33.2917 9.70837 34.4795 11.4723 35.355 13.5C36.2306 15.5278 36.6678 17.6945 36.6667 20V22.4167C36.6667 24.0556 36.1045 25.4517 34.98 26.605C33.8556 27.7584 32.4733 28.3345 30.8333 28.3334C29.8611 28.3334 28.9445 28.125 28.0833 27.7084C27.2222 27.2917 26.5 26.6945 25.9167 25.9167C25.1111 26.7223 24.2011 27.3267 23.1867 27.73C22.1722 28.1334 21.11 28.3345 20 28.3334C17.6945 28.3334 15.7289 27.5206 14.1033 25.895C12.4778 24.2695 11.6656 22.3045 11.6667 20C11.6667 17.6945 12.4795 15.7289 14.105 14.1034C15.7306 12.4778 17.6956 11.6656 20 11.6667C22.3056 11.6667 24.2711 12.4795 25.8967 14.105C27.5222 15.7306 28.3345 17.6956 28.3333 20V22.4167C28.3333 23.1389 28.5695 23.75 29.0417 24.25C29.5139 24.75 30.1111 25 30.8333 25C31.5556 25 32.1528 24.75 32.625 24.25C33.0972 23.75 33.3333 23.1389 33.3333 22.4167V20C33.3333 16.2778 32.0417 13.125 29.4583 10.5417C26.875 7.95837 23.7222 6.66671 20 6.66671C16.2778 6.66671 13.125 7.95837 10.5417 10.5417C7.95834 13.125 6.66668 16.2778 6.66668 20C6.66668 23.7223 7.95834 26.875 10.5417 29.4584C13.125 32.0417 16.2778 33.3334 20 33.3334H28.3333V36.6667H20ZM20 25C21.3889 25 22.5695 24.5139 23.5417 23.5417C24.5139 22.5695 25 21.3889 25 20C25 18.6112 24.5139 17.4306 23.5417 16.4584C22.5695 15.4862 21.3889 15 20 15C18.6111 15 17.4306 15.4862 16.4583 16.4584C15.4861 17.4306 15 18.6112 15 20C15 21.3889 15.4861 22.5695 16.4583 23.5417C17.4306 24.5139 18.6111 25 20 25Z" fill="#CCC5B9" fill-opacity="0.75"/>
</g>
</svg>
