<svg width="25" height="25" viewBox="0 0 25 25" fill="none" xmlns="http://www.w3.org/2000/svg">
<path d="M12.5 1.5625C6.45996 1.5625 1.5625 6.58691 1.5625 12.7783C1.5625 17.7344 4.69727 21.9336 9.04297 23.418C9.10392 23.4312 9.16614 23.4378 9.22852 23.4375C9.63379 23.4375 9.79004 23.1396 9.79004 22.8809C9.79004 22.6123 9.78027 21.9092 9.77539 20.9717C9.41359 21.0565 9.04347 21.1007 8.67188 21.1035C6.56738 21.1035 6.08887 19.4678 6.08887 19.4678C5.59082 18.1738 4.87305 17.8271 4.87305 17.8271C3.9209 17.1582 4.86816 17.1387 4.94141 17.1387H4.94629C6.04492 17.2363 6.62109 18.3008 6.62109 18.3008C7.16797 19.2578 7.90039 19.5264 8.55469 19.5264C8.98732 19.5177 9.41326 19.4179 9.80469 19.2334C9.90234 18.5107 10.1855 18.0176 10.498 17.7344C8.07129 17.4512 5.51758 16.4893 5.51758 12.1924C5.51758 10.9668 5.94238 9.96582 6.64062 9.18457C6.52832 8.90137 6.15234 7.75879 6.74805 6.21582C6.82795 6.1967 6.91008 6.18849 6.99219 6.19141C7.3877 6.19141 8.28125 6.34277 9.75586 7.36816C11.5476 6.86685 13.4426 6.86685 15.2344 7.36816C16.709 6.34277 17.6025 6.19141 17.998 6.19141C18.0802 6.18849 18.1623 6.1967 18.2422 6.21582C18.8379 7.75879 18.4619 8.90137 18.3496 9.18457C19.0479 9.9707 19.4727 10.9717 19.4727 12.1924C19.4727 16.499 16.9141 17.4463 14.4775 17.7246C14.8682 18.0713 15.2197 18.7549 15.2197 19.7998C15.2197 21.2988 15.2051 22.5098 15.2051 22.876C15.2051 23.1396 15.3564 23.4375 15.7617 23.4375C15.8273 23.4378 15.8928 23.4312 15.957 23.418C20.3076 21.9336 23.4375 17.7295 23.4375 12.7783C23.4375 6.58691 18.54 1.5625 12.5 1.5625Z" fill="#FFFCF2"/>
</svg>
