<svg width="50" height="50" viewBox="0 0 50 50" fill="none" xmlns="http://www.w3.org/2000/svg">
<circle cx="25" cy="25" r="25" fill="#CCC5B9" fill-opacity="0.4"/>
<path d="M29.8299 12.4896C29.6751 12.3344 29.4912 12.2113 29.2887 12.1273C29.0862 12.0432 28.8692 12 28.6499 12C28.4307 12 28.2136 12.0432 28.0111 12.1273C27.8087 12.2113 27.6247 12.3344 27.4699 12.4896L16.3899 23.5696C16.2663 23.693 16.1683 23.8395 16.1013 24.0008C16.0344 24.1621 16 24.335 16 24.5096C16 24.6843 16.0344 24.8572 16.1013 25.0185C16.1683 25.1798 16.2663 25.3263 16.3899 25.4496L27.4699 36.5296C28.1233 37.183 29.1766 37.183 29.8299 36.5296C30.4833 35.8763 30.4833 34.823 29.8299 34.1696L20.1766 24.503L29.8433 14.8363C30.4833 14.1963 30.4833 13.1296 29.8299 12.4896Z" fill="#FFFCF2"/>
</svg>
