<svg width="21" height="20" viewBox="0 0 21 20" fill="none" xmlns="http://www.w3.org/2000/svg">
<path d="M10.749 1.25C10.749 0.918479 10.8807 0.600537 11.1151 0.366117C11.3496 0.131696 11.6675 0 11.999 0L19.499 0C19.8305 0 20.1485 0.131696 20.3829 0.366117C20.6173 0.600537 20.749 0.918479 20.749 1.25V18.75C20.749 19.0815 20.6173 19.3995 20.3829 19.6339C20.1485 19.8683 19.8305 20 19.499 20H11.999C11.6675 20 11.3496 19.8683 11.1151 19.6339C10.8807 19.3995 10.749 19.0815 10.749 18.75V1.25ZM11.999 18.125C11.999 18.2908 12.0649 18.4497 12.1821 18.5669C12.2993 18.6842 12.4583 18.75 12.624 18.75C12.7898 18.75 12.9488 18.6842 13.066 18.5669C13.1832 18.4497 13.249 18.2908 13.249 18.125C13.249 17.9592 13.1832 17.8003 13.066 17.6831C12.9488 17.5658 12.7898 17.5 12.624 17.5C12.4583 17.5 12.2993 17.5658 12.1821 17.6831C12.0649 17.8003 11.999 17.9592 11.999 18.125ZM14.499 18.125C14.499 18.2908 14.5649 18.4497 14.6821 18.5669C14.7993 18.6842 14.9583 18.75 15.124 18.75C15.2898 18.75 15.4488 18.6842 15.566 18.5669C15.6832 18.4497 15.749 18.2908 15.749 18.125C15.749 17.9592 15.6832 17.8003 15.566 17.6831C15.4488 17.5658 15.2898 17.5 15.124 17.5C14.9583 17.5 14.7993 17.5658 14.6821 17.6831C14.5649 17.8003 14.499 17.9592 14.499 18.125ZM12.624 1.25C12.4583 1.25 12.2993 1.31585 12.1821 1.43306C12.0649 1.55027 11.999 1.70924 11.999 1.875C11.999 2.04076 12.0649 2.19973 12.1821 2.31694C12.2993 2.43415 12.4583 2.5 12.624 2.5H18.874C19.0398 2.5 19.1988 2.43415 19.316 2.31694C19.4332 2.19973 19.499 2.04076 19.499 1.875C19.499 1.70924 19.4332 1.55027 19.316 1.43306C19.1988 1.31585 19.0398 1.25 18.874 1.25H12.624ZM11.999 4.375C11.999 4.54076 12.0649 4.69973 12.1821 4.81694C12.2993 4.93415 12.4583 5 12.624 5H18.874C19.0398 5 19.1988 4.93415 19.316 4.81694C19.4332 4.69973 19.499 4.54076 19.499 4.375C19.499 4.20924 19.4332 4.05027 19.316 3.93306C19.1988 3.81585 19.0398 3.75 18.874 3.75H12.624C12.4583 3.75 12.2993 3.81585 12.1821 3.93306C12.0649 4.05027 11.999 4.20924 11.999 4.375ZM2.62402 2.5C2.12674 2.5 1.64983 2.69754 1.2982 3.04918C0.946568 3.40081 0.749023 3.87772 0.749023 4.375L0.749023 13.125C0.749023 13.6223 0.946568 14.0992 1.2982 14.4508C1.64983 14.8025 2.12674 15 2.62402 15H8.24902V17.5H7.62402C7.45826 17.5 7.29929 17.5658 7.18208 17.6831C7.06487 17.8003 6.99902 17.9592 6.99902 18.125C6.99902 18.2908 7.06487 18.4497 7.18208 18.5669C7.29929 18.6842 7.45826 18.75 7.62402 18.75H9.49902V13.75H2.62402C2.45826 13.75 2.29929 13.6842 2.18208 13.5669C2.06487 13.4497 1.99902 13.2908 1.99902 13.125V4.375C1.99902 4.20924 2.06487 4.05027 2.18208 3.93306C2.29929 3.81585 2.45826 3.75 2.62402 3.75H9.49902V2.5H2.62402Z" fill="#FFFCF2"/>
</svg>
