<svg width="16" height="18" viewBox="0 0 16 18" fill="none" xmlns="http://www.w3.org/2000/svg">
<path d="M7.41569 6.3125V5.95833C6.80458 5.77778 6.30458 5.43417 5.91569 4.9275C5.5268 4.42083 5.33236 3.83389 5.33236 3.16667C5.33236 2.36111 5.61708 1.67361 6.18652 1.10417C6.75597 0.534722 7.44347 0.25 8.24902 0.25C9.05458 0.25 9.74208 0.534722 10.3115 1.10417C10.881 1.67361 11.1657 2.36111 11.1657 3.16667C11.1657 3.83333 10.9712 4.42028 10.5824 4.9275C10.1935 5.43472 9.69347 5.77833 9.08236 5.95833V6.3125L15.749 10.1458V13.6875L9.08236 17.5208C8.81847 17.6736 8.54069 17.75 8.24902 17.75C7.95736 17.75 7.67958 17.6736 7.41569 17.5208L0.749023 13.6875V10.1458L7.41569 6.3125ZM2.41569 11.3125V12.7083L8.24902 16.0833L14.0824 12.7083V11.3125L8.24902 14.6667L2.41569 11.3125ZM7.41569 11.0833V8.22917L3.91569 10.25L8.24902 12.75L12.5824 10.25L9.08236 8.22917V11.0833H7.41569ZM8.24902 4.41667C8.59625 4.41667 8.89152 4.295 9.13486 4.05167C9.37819 3.80833 9.49958 3.51333 9.49902 3.16667C9.49902 2.81944 9.37736 2.52417 9.13402 2.28083C8.89069 2.0375 8.59569 1.91611 8.24902 1.91667C7.9018 1.91667 7.60652 2.03833 7.36319 2.28167C7.11986 2.525 6.99847 2.82 6.99902 3.16667C6.99902 3.51389 7.12069 3.80917 7.36402 4.0525C7.60736 4.29583 7.90236 4.41722 8.24902 4.41667Z" fill="#FFFCF2"/>
</svg>
