<svg width="50" height="50" viewBox="0 0 50 50" fill="none" xmlns="http://www.w3.org/2000/svg">
<circle cx="25" cy="25" r="25" fill="#CCC5B9" fill-opacity="0.4"/>
<path d="M18.8401 37.0133C19.4934 37.6666 20.5467 37.6666 21.2001 37.0133L32.2801 25.9333C32.4037 25.8099 32.5017 25.6634 32.5686 25.5021C32.6356 25.3408 32.67 25.1679 32.67 24.9933C32.67 24.8187 32.6356 24.6457 32.5686 24.4844C32.5017 24.3231 32.4037 24.1766 32.2801 24.0533L21.2001 12.9733C20.5467 12.3199 19.4934 12.3199 18.8401 12.9733C18.1867 13.6266 18.1867 14.6799 18.8401 15.3333L28.4934 24.9999L18.8267 34.6666C18.1867 35.3066 18.1867 36.3733 18.8401 37.0133Z" fill="#FFFCF2"/>
</svg>
