<svg width="35" height="35" viewBox="0 0 35 35" fill="none" xmlns="http://www.w3.org/2000/svg">
<path d="M12.9445 25.889C9.3267 25.889 6.26515 24.6358 3.75989 22.1292C1.25462 19.6226 0.00132764 16.561 0 12.9445C0 9.3267 1.2533 6.26515 3.75989 3.75989C6.26648 1.25462 9.32802 0.00132764 12.9445 0C16.5624 0 19.6239 1.2533 22.1292 3.75989C24.6344 6.26648 25.8877 9.32802 25.889 12.9445C25.889 14.4049 25.6567 15.7824 25.192 17.0768C24.7274 18.3713 24.0967 19.5164 23.3001 20.5121L34.4523 31.6643C34.8174 32.0294 35 32.4941 35 33.0583C35 33.6226 34.8174 34.0872 34.4523 34.4523C34.0872 34.8174 33.6226 35 33.0583 35C32.4941 35 32.0294 34.8174 31.6643 34.4523L20.5121 23.3001C19.5164 24.0967 18.3713 24.7274 17.0768 25.192C15.7824 25.6567 14.4049 25.889 12.9445 25.889ZM12.9445 21.9061C15.4339 21.9061 17.5501 21.0345 19.2933 19.2913C21.0365 17.5481 21.9074 15.4325 21.9061 12.9445C21.9061 10.4552 21.0345 8.33893 19.2913 6.59573C17.5481 4.85254 15.4325 3.9816 12.9445 3.98293C10.4552 3.98293 8.33893 4.85453 6.59573 6.59772C4.85254 8.34092 3.9816 10.4565 3.98293 12.9445C3.98293 15.4339 4.85453 17.5501 6.59772 19.2933C8.34092 21.0365 10.4565 21.9074 12.9445 21.9061Z" fill="#FFFCF2"/>
</svg>
