<svg width="51" height="50" viewBox="0 0 51 50" fill="none" xmlns="http://www.w3.org/2000/svg">
<path d="M25.5 12.5C23.9548 12.5 22.4444 12.9582 21.1596 13.8166C19.8749 14.6751 18.8735 15.8952 18.2822 17.3228C17.6909 18.7503 17.5362 20.3212 17.8376 21.8366C18.1391 23.3521 18.8831 24.7442 19.9757 25.8368C21.0683 26.9294 22.4604 27.6734 23.9759 27.9749C25.4913 28.2763 27.0622 28.1216 28.4897 27.5303C29.9173 26.939 31.1374 25.9377 31.9959 24.6529C32.8543 23.3681 33.3125 21.8577 33.3125 20.3125C33.3125 18.2405 32.4894 16.2534 31.0243 14.7882C29.5591 13.3231 27.572 12.5 25.5 12.5ZM25.5 25C24.5729 25 23.6666 24.7251 22.8958 24.21C22.1249 23.6949 21.5241 22.9629 21.1693 22.1063C20.8145 21.2498 20.7217 20.3073 20.9026 19.398C21.0834 18.4887 21.5299 17.6535 22.1854 16.9979C22.841 16.3424 23.6762 15.8959 24.5855 15.7151C25.4948 15.5342 26.4373 15.627 27.2938 15.9818C28.1504 16.3366 28.8825 16.9374 29.3975 17.7083C29.9126 18.4791 30.1875 19.3854 30.1875 20.3125C30.1863 21.5553 29.692 22.7469 28.8132 23.6257C27.9344 24.5045 26.7428 24.9988 25.5 25Z" fill="#CCC5B9" fill-opacity="0.75"/>
<path d="M25.5 3.125C21.1735 3.125 16.9442 4.40795 13.3469 6.8116C9.74959 9.21526 6.94581 12.6317 5.29014 16.6288C3.63448 20.6259 3.20128 25.0243 4.04533 29.2676C4.88938 33.5109 6.97277 37.4087 10.032 40.468C13.0913 43.5272 16.9891 45.6106 21.2324 46.4547C25.4757 47.2987 29.8741 46.8655 33.8712 45.2099C37.8683 43.5542 41.2848 40.7504 43.6884 37.1531C46.0921 33.5558 47.375 29.3265 47.375 25C47.3684 19.2004 45.0616 13.6403 40.9607 9.53935C36.8597 5.43842 31.2996 3.13162 25.5 3.125ZM16.125 41.2141V39.0625C16.1263 37.8197 16.6205 36.6281 17.4993 35.7493C18.3781 34.8705 19.5697 34.3762 20.8125 34.375H30.1875C31.4303 34.3762 32.6219 34.8705 33.5007 35.7493C34.3795 36.6281 34.8738 37.8197 34.875 39.0625V41.2141C32.03 42.8753 28.7946 43.7508 25.5 43.7508C22.2055 43.7508 18.9701 42.8753 16.125 41.2141ZM37.9875 38.9469C37.9564 36.8974 37.1213 34.9422 35.6624 33.5025C34.2034 32.0628 32.2372 31.2539 30.1875 31.25H20.8125C18.7628 31.2539 16.7966 32.0628 15.3376 33.5025C13.8787 34.9422 13.0436 36.8974 13.0125 38.9469C10.179 36.4168 8.18084 33.0857 7.28256 29.3948C6.38429 25.7038 6.62829 21.8271 7.98226 18.2779C9.33622 14.7287 11.7363 11.6745 14.8647 9.51964C17.993 7.36479 21.7021 6.21098 25.5008 6.21098C29.2995 6.21098 33.0086 7.36479 36.1369 9.51964C39.2653 11.6745 41.6654 14.7287 43.0193 18.2779C44.3733 21.8271 44.6173 25.7038 43.719 29.3948C42.8207 33.0857 40.821 36.4168 37.9875 38.9469Z" fill="#CCC5B9" fill-opacity="0.75"/>
</svg>
