<svg width="16" height="16" viewBox="0 0 16 16" fill="none" xmlns="http://www.w3.org/2000/svg">
<path d="M9.20306 0.500004C10.4562 0.498873 11.6938 0.745383 12.8261 1.22162C13.9584 1.69787 14.9569 2.39188 15.749 3.25325L10.3985 8L15.749 12.7467C14.9569 13.6081 13.9584 14.3021 12.8261 14.7784C11.6938 15.2546 10.4562 15.5011 9.20306 15.5C4.5339 15.5 0.749023 12.1422 0.749023 8C0.749023 3.85775 4.5339 0.500004 9.20306 0.500004ZM9.20306 2.75C8.86674 2.75 8.54419 2.86853 8.30637 3.07951C8.06856 3.29049 7.93496 3.57663 7.93496 3.875C7.93496 4.17337 8.06856 4.45952 8.30637 4.6705C8.54419 4.88147 8.86674 5 9.20306 5C9.53938 5 9.86193 4.88147 10.0997 4.6705C10.3376 4.45952 10.4712 4.17337 10.4712 3.875C10.4712 3.57663 10.3376 3.29049 10.0997 3.07951C9.86193 2.86853 9.53938 2.75 9.20306 2.75Z" fill="#FFFCF2"/>
</svg>
